<svg viewBox="0 0 400 400" fill="none" xmlns="http://www.w3.org/2000/svg">
<g clip-path="url(#clip0_119_55)">
<path d="M212.72 332.254C266.079 326.277 308.843 283.622 314.929 230.263C322.916 160.494 268.687 101.103 200.711 100.342V69.0436C200.711 67.3048 198.538 66.3811 197.07 67.4678L132.626 114.796C131.539 115.611 131.539 117.187 132.626 118.002L197.07 165.33C198.538 166.416 200.711 165.438 200.711 163.754V132.51C248.474 133.271 286.727 173.915 283.467 222.493C280.696 264.278 246.626 298.185 204.841 300.847C160.556 303.673 122.9 272.049 116.162 230.209C114.912 222.438 108.12 216.787 100.295 216.787C90.5689 216.787 82.9617 225.427 84.4831 235.045C93.9379 294.653 148.982 339.373 212.72 332.254Z" fill="black"/>
</g>
<defs>
<clipPath id="clip0_119_55">
<rect width="266" height="266" fill="white" transform="translate(67 67)"/>
</clipPath>
</defs>
</svg>
